<svg xmlns="http://www.w3.org/2000/svg" width="130.634" height="167.524" viewBox="0 0 130.634 167.524">
  <path id="Path_48" data-name="Path 48" d="M118.7-98.518c0,17.36-12.586,23.653-29.078,29.078L50.127-56.42c-5.642,1.953-8.68,3.038-8.68,8.68v20.4h26.04v-2.17c1.519-1.3,3.689-1.953,6.51-3.038l37.324-13.02c16.492-5.642,31.248-13.888,31.248-31.248V-104.16c0-7.812-2.387-15.19-7.6-20.4l-21.266-21.266c4.34,5.208,4.991,12.586,4.991,19.964ZM16.275-111.1l-2.17,2.17,21.7,21.7H56.2l9.982-2.6v-7.378c0-5.642,3.038-8.68,8.68-8.68H91.791v-15.19c0-5.642-3.038-8.68-8.68-8.68H50.995c-5.642,0-8.68,3.038-8.68,8.68v9.982ZM34.069,21.7H143V-7.812l-21.7-21.7-2.17,2.17V-2.17H14.539L12.369,0Z" transform="translate(-12.369 145.824)" fill="#f5f5f5"/>
</svg>
